# xmcd CD database file
#
# Track frame offsets:
#	150
#	14578
#	33046
#	40395
#	49994
#	70403
#	77008
#	86062
#	97996
#	115016
#	131146
#	143256
#	161303
#	163482
#	178848
#	191136
#	215759
#
# Disc length: 3194 seconds
#
# Revision: 0
# Processed by: cddbd v1.4PL0 Copyright (c) Steve Scherf et al.
# Submitted via: CDex 1.50
#
DISCID=ef0c7811
DTITLE=Guytare Bergeron-Electric - Electric
DYEAR=1900
DGENRE=Jazz
TTITLE0=Overture
TTITLE1=Tant aimé
TTITLE2=1st MVT fleury-michon
TTITLE3=2nd MVTsofati-soconav
TTITLE4=3rd MVT formule-tag
TTITLE5=fit of anger
TTITLE6=Motua
TTITLE7=The frog prog
TTITLE8=Drama
TTITLE9=Regguy
TTITLE10=Toto
TTITLE11=Dance two
TTITLE12=Sidac
TTITLE13=Tant aimé
TTITLE14=Synth'n bass
TTITLE15=Always ands well
TTITLE16=Bonus track*
EXTD=
EXTT0=
EXTT1=
EXTT2=
EXTT3=
EXTT4=
EXTT5=
EXTT6=
EXTT7=
EXTT8=
EXTT9=
EXTT10=
EXTT11=
EXTT12=
EXTT13=
EXTT14=
EXTT15=
EXTT16=
PLAYORDER=
